<svg width="368" height="270" viewBox="0 0 368 270" fill="none" xmlns="http://www.w3.org/2000/svg">
<g clip-path="url(#clip0_7771_2862)">
<path d="M0 32C0 16.9151 0 9.37258 4.68629 4.68629C9.37258 0 16.9151 0 32 0H368V117H32C16.9151 117 9.37258 117 4.68629 112.314C0 107.627 0 100.085 0 85V32Z" fill="#0055F1"/>
<path d="M80.32 35L84.848 23.752H86.624L91.136 35H88.816L85.328 25.768H86.128L82.592 35H80.32ZM82.72 32.904V31.08H88.768V32.904H82.72ZM93.0055 35V23.432H95.1015V35H93.0055ZM100.255 35.176C99.8173 35.176 99.3853 35.1173 98.9586 35C98.5426 34.8827 98.1586 34.7227 97.8066 34.52C97.4546 34.3067 97.1506 34.0507 96.8946 33.752L98.1426 32.488C98.4093 32.7867 98.7186 33.0107 99.0706 33.16C99.4226 33.3093 99.812 33.384 100.239 33.384C100.58 33.384 100.836 33.336 101.007 33.24C101.188 33.144 101.279 33 101.279 32.808C101.279 32.5947 101.183 32.4293 100.991 32.312C100.809 32.1947 100.569 32.0987 100.271 32.024C99.972 31.9387 99.6573 31.848 99.3266 31.752C99.0066 31.6453 98.6973 31.512 98.3986 31.352C98.1 31.1813 97.8546 30.952 97.6626 30.664C97.4813 30.3653 97.3906 29.9813 97.3906 29.512C97.3906 29.0213 97.508 28.5947 97.7426 28.232C97.988 27.8693 98.3346 27.5867 98.7826 27.384C99.2306 27.1813 99.7586 27.08 100.367 27.08C101.007 27.08 101.583 27.192 102.095 27.416C102.617 27.64 103.049 27.976 103.391 28.424L102.127 29.688C101.892 29.4 101.625 29.192 101.327 29.064C101.039 28.936 100.724 28.872 100.383 28.872C100.073 28.872 99.8333 28.92 99.6626 29.016C99.5026 29.112 99.4226 29.2453 99.4226 29.416C99.4226 29.608 99.5133 29.7573 99.6946 29.864C99.8866 29.9707 100.132 30.0667 100.431 30.152C100.729 30.2267 101.039 30.3173 101.359 30.424C101.689 30.52 101.999 30.6587 102.287 30.84C102.585 31.0213 102.825 31.2613 103.007 31.56C103.199 31.8587 103.295 32.2427 103.295 32.712C103.295 33.4693 103.023 34.072 102.479 34.52C101.935 34.9573 101.193 35.176 100.255 35.176ZM108.98 35.16C108.201 35.16 107.497 34.984 106.868 34.632C106.249 34.2693 105.753 33.784 105.38 33.176C105.017 32.5573 104.836 31.8693 104.836 31.112C104.836 30.3547 105.017 29.6773 105.38 29.08C105.743 28.472 106.239 27.992 106.868 27.64C107.497 27.2773 108.196 27.096 108.964 27.096C109.753 27.096 110.457 27.2773 111.076 27.64C111.705 27.992 112.201 28.472 112.564 29.08C112.927 29.6773 113.108 30.3547 113.108 31.112C113.108 31.8693 112.927 32.5573 112.564 33.176C112.201 33.784 111.705 34.2693 111.076 34.632C110.457 34.984 109.759 35.16 108.98 35.16ZM108.964 33.208C109.359 33.208 109.705 33.1227 110.004 32.952C110.313 32.7707 110.548 32.5253 110.708 32.216C110.879 31.896 110.964 31.5333 110.964 31.128C110.964 30.7227 110.879 30.3653 110.708 30.056C110.537 29.7467 110.303 29.5067 110.004 29.336C109.705 29.1547 109.359 29.064 108.964 29.064C108.58 29.064 108.239 29.1547 107.94 29.336C107.641 29.5067 107.407 29.7467 107.236 30.056C107.065 30.3653 106.98 30.7227 106.98 31.128C106.98 31.5333 107.065 31.896 107.236 32.216C107.407 32.5253 107.641 32.7707 107.94 32.952C108.239 33.1227 108.58 33.208 108.964 33.208ZM121.374 35L117.966 27.272H120.27L122.718 33.64H121.582L124.046 27.272H126.27L122.878 35H121.374ZM127.877 35V27.272H129.989V35H127.877ZM128.933 26.024C128.592 26.024 128.309 25.912 128.085 25.688C127.861 25.4533 127.749 25.1653 127.749 24.824C127.749 24.4933 127.861 24.2107 128.085 23.976C128.309 23.7413 128.592 23.624 128.933 23.624C129.285 23.624 129.568 23.7413 129.781 23.976C130.005 24.2107 130.117 24.4933 130.117 24.824C130.117 25.1653 130.005 25.4533 129.781 25.688C129.568 25.912 129.285 26.024 128.933 26.024ZM135.142 35.176C134.705 35.176 134.273 35.1173 133.846 35C133.43 34.8827 133.046 34.7227 132.694 34.52C132.342 34.3067 132.038 34.0507 131.782 33.752L133.03 32.488C133.297 32.7867 133.606 33.0107 133.958 33.16C134.31 33.3093 134.699 33.384 135.126 33.384C135.467 33.384 135.723 33.336 135.894 33.24C136.075 33.144 136.166 33 136.166 32.808C136.166 32.5947 136.07 32.4293 135.878 32.312C135.697 32.1947 135.457 32.0987 135.158 32.024C134.859 31.9387 134.545 31.848 134.214 31.752C133.894 31.6453 133.585 31.512 133.286 31.352C132.987 31.1813 132.742 30.952 132.55 30.664C132.369 30.3653 132.278 29.9813 132.278 29.512C132.278 29.0213 132.395 28.5947 132.63 28.232C132.875 27.8693 133.222 27.5867 133.67 27.384C134.118 27.1813 134.646 27.08 135.254 27.08C135.894 27.08 136.47 27.192 136.982 27.416C137.505 27.64 137.937 27.976 138.278 28.424L137.014 29.688C136.779 29.4 136.513 29.192 136.214 29.064C135.926 28.936 135.611 28.872 135.27 28.872C134.961 28.872 134.721 28.92 134.55 29.016C134.39 29.112 134.31 29.2453 134.31 29.416C134.31 29.608 134.401 29.7573 134.582 29.864C134.774 29.9707 135.019 30.0667 135.318 30.152C135.617 30.2267 135.926 30.3173 136.246 30.424C136.577 30.52 136.886 30.6587 137.174 30.84C137.473 31.0213 137.713 31.2613 137.894 31.56C138.086 31.8587 138.182 32.2427 138.182 32.712C138.182 33.4693 137.91 34.072 137.366 34.52C136.822 34.9573 136.081 35.176 135.142 35.176ZM140.235 35V27.272H142.347V35H140.235ZM141.291 26.024C140.95 26.024 140.667 25.912 140.443 25.688C140.219 25.4533 140.107 25.1653 140.107 24.824C140.107 24.4933 140.219 24.2107 140.443 23.976C140.667 23.7413 140.95 23.624 141.291 23.624C141.643 23.624 141.926 23.7413 142.139 23.976C142.363 24.2107 142.475 24.4933 142.475 24.824C142.475 25.1653 142.363 25.4533 142.139 25.688C141.926 25.912 141.643 26.024 141.291 26.024ZM145.98 35V24.056H148.076V35H145.98ZM144.172 29.112V27.272H149.884V29.112H144.172ZM155.692 35V23.752H157.212L157.868 25.928V35H155.692ZM163.468 35L156.796 26.36L157.212 23.752L163.884 32.392L163.468 35ZM163.468 35L162.844 32.888V23.752H165.036V35H163.468ZM171.429 35.16C170.618 35.16 169.898 34.9893 169.269 34.648C168.64 34.296 168.138 33.816 167.765 33.208C167.402 32.6 167.221 31.9067 167.221 31.128C167.221 30.36 167.397 29.6773 167.749 29.08C168.112 28.472 168.602 27.992 169.221 27.64C169.84 27.2773 170.528 27.096 171.285 27.096C172.032 27.096 172.688 27.2667 173.253 27.608C173.829 27.9387 174.277 28.3973 174.597 28.984C174.928 29.56 175.093 30.216 175.093 30.952C175.093 31.0907 175.082 31.2347 175.061 31.384C175.05 31.5227 175.024 31.6827 174.981 31.864L168.485 31.88V30.312L174.005 30.296L173.157 30.952C173.136 30.4933 173.05 30.1093 172.901 29.8C172.762 29.4907 172.554 29.256 172.277 29.096C172.01 28.9253 171.68 28.84 171.285 28.84C170.869 28.84 170.506 28.936 170.197 29.128C169.888 29.3093 169.648 29.5707 169.477 29.912C169.317 30.2427 169.237 30.6373 169.237 31.096C169.237 31.5653 169.322 31.976 169.493 32.328C169.674 32.6693 169.93 32.936 170.261 33.128C170.592 33.3093 170.976 33.4 171.413 33.4C171.808 33.4 172.165 33.336 172.485 33.208C172.805 33.0693 173.082 32.8667 173.317 32.6L174.549 33.832C174.176 34.2693 173.717 34.6 173.173 34.824C172.64 35.048 172.058 35.16 171.429 35.16ZM181.658 35L179.626 31.864L179.194 31.544L176.186 27.272H178.666L180.538 30.104L180.938 30.408L184.122 35H181.658ZM176.026 35L179.178 30.584L180.378 32.008L178.394 35H176.026ZM181.018 31.528L179.786 30.12L181.626 27.272H183.978L181.018 31.528ZM186.727 35V24.056H188.823V35H186.727ZM184.919 29.112V27.272H190.631V29.112H184.919ZM195.894 35.16C195.116 35.16 194.412 34.984 193.782 34.632C193.164 34.2693 192.668 33.784 192.294 33.176C191.932 32.5573 191.75 31.8693 191.75 31.112C191.75 30.3547 191.932 29.6773 192.294 29.08C192.657 28.472 193.153 27.992 193.782 27.64C194.412 27.2773 195.11 27.096 195.878 27.096C196.668 27.096 197.372 27.2773 197.99 27.64C198.62 27.992 199.116 28.472 199.478 29.08C199.841 29.6773 200.022 30.3547 200.022 31.112C200.022 31.8693 199.841 32.5573 199.478 33.176C199.116 33.784 198.62 34.2693 197.99 34.632C197.372 34.984 196.673 35.16 195.894 35.16ZM195.878 33.208C196.273 33.208 196.62 33.1227 196.918 32.952C197.228 32.7707 197.462 32.5253 197.622 32.216C197.793 31.896 197.878 31.5333 197.878 31.128C197.878 30.7227 197.793 30.3653 197.622 30.056C197.452 29.7467 197.217 29.5067 196.918 29.336C196.62 29.1547 196.273 29.064 195.878 29.064C195.494 29.064 195.153 29.1547 194.854 29.336C194.556 29.5067 194.321 29.7467 194.15 30.056C193.98 30.3653 193.894 30.7227 193.894 31.128C193.894 31.5333 193.98 31.896 194.15 32.216C194.321 32.5253 194.556 32.7707 194.854 32.952C195.153 33.1227 195.494 33.208 195.878 33.208ZM206.3 35.16C205.745 35.16 205.244 35.048 204.796 34.824C204.348 34.5893 203.99 34.2747 203.724 33.88C203.457 33.4853 203.313 33.032 203.292 32.52V29.784C203.313 29.272 203.457 28.8187 203.724 28.424C204.001 28.0187 204.358 27.6987 204.796 27.464C205.244 27.2293 205.745 27.112 206.3 27.112C207.014 27.112 207.654 27.288 208.22 27.64C208.785 27.992 209.228 28.472 209.548 29.08C209.878 29.688 210.044 30.376 210.044 31.144C210.044 31.9013 209.878 32.584 209.548 33.192C209.228 33.8 208.785 34.28 208.22 34.632C207.654 34.984 207.014 35.16 206.3 35.16ZM202.012 38.232V27.272H204.108V29.304L203.756 31.176L204.092 33.048V38.232H202.012ZM205.932 33.224C206.316 33.224 206.657 33.1387 206.956 32.968C207.254 32.7867 207.484 32.5413 207.644 32.232C207.814 31.912 207.9 31.544 207.9 31.128C207.9 30.7227 207.814 30.3653 207.644 30.056C207.484 29.736 207.254 29.4907 206.956 29.32C206.657 29.1387 206.316 29.048 205.932 29.048C205.558 29.048 205.222 29.1387 204.924 29.32C204.625 29.4907 204.39 29.736 204.22 30.056C204.06 30.3653 203.98 30.7227 203.98 31.128C203.98 31.544 204.06 31.912 204.22 32.232C204.39 32.5413 204.62 32.7867 204.908 32.968C205.206 33.1387 205.548 33.224 205.932 33.224ZM214.714 35.176C214.277 35.176 213.845 35.1173 213.418 35C213.002 34.8827 212.618 34.7227 212.266 34.52C211.914 34.3067 211.61 34.0507 211.354 33.752L212.602 32.488C212.869 32.7867 213.178 33.0107 213.53 33.16C213.882 33.3093 214.271 33.384 214.698 33.384C215.039 33.384 215.295 33.336 215.466 33.24C215.647 33.144 215.738 33 215.738 32.808C215.738 32.5947 215.642 32.4293 215.45 32.312C215.269 32.1947 215.029 32.0987 214.73 32.024C214.431 31.9387 214.117 31.848 213.786 31.752C213.466 31.6453 213.157 31.512 212.858 31.352C212.559 31.1813 212.314 30.952 212.122 30.664C211.941 30.3653 211.85 29.9813 211.85 29.512C211.85 29.0213 211.967 28.5947 212.202 28.232C212.447 27.8693 212.794 27.5867 213.242 27.384C213.69 27.1813 214.218 27.08 214.826 27.08C215.466 27.08 216.042 27.192 216.554 27.416C217.077 27.64 217.509 27.976 217.85 28.424L216.586 29.688C216.351 29.4 216.085 29.192 215.786 29.064C215.498 28.936 215.183 28.872 214.842 28.872C214.533 28.872 214.293 28.92 214.122 29.016C213.962 29.112 213.882 29.2453 213.882 29.416C213.882 29.608 213.973 29.7573 214.154 29.864C214.346 29.9707 214.591 30.0667 214.89 30.152C215.189 30.2267 215.498 30.3173 215.818 30.424C216.149 30.52 216.458 30.6587 216.746 30.84C217.045 31.0213 217.285 31.2613 217.466 31.56C217.658 31.8587 217.754 32.2427 217.754 32.712C217.754 33.4693 217.482 34.072 216.938 34.52C216.394 34.9573 215.653 35.176 214.714 35.176ZM223.439 35.16C222.661 35.16 221.957 34.984 221.327 34.632C220.709 34.2693 220.213 33.784 219.839 33.176C219.477 32.5573 219.295 31.8693 219.295 31.112C219.295 30.3547 219.477 29.6773 219.839 29.08C220.202 28.472 220.698 27.992 221.327 27.64C221.957 27.2773 222.655 27.096 223.423 27.096C224.213 27.096 224.917 27.2773 225.535 27.64C226.165 27.992 226.661 28.472 227.023 29.08C227.386 29.6773 227.567 30.3547 227.567 31.112C227.567 31.8693 227.386 32.5573 227.023 33.176C226.661 33.784 226.165 34.2693 225.535 34.632C224.917 34.984 224.218 35.16 223.439 35.16ZM223.423 33.208C223.818 33.208 224.165 33.1227 224.463 32.952C224.773 32.7707 225.007 32.5253 225.167 32.216C225.338 31.896 225.423 31.5333 225.423 31.128C225.423 30.7227 225.338 30.3653 225.167 30.056C224.997 29.7467 224.762 29.5067 224.463 29.336C224.165 29.1547 223.818 29.064 223.423 29.064C223.039 29.064 222.698 29.1547 222.399 29.336C222.101 29.5067 221.866 29.7467 221.695 30.056C221.525 30.3653 221.439 30.7227 221.439 31.128C221.439 31.5333 221.525 31.896 221.695 32.216C221.866 32.5253 222.101 32.7707 222.399 32.952C222.698 33.1227 223.039 33.208 223.423 33.208ZM234.757 35V30.568C234.757 30.1093 234.613 29.736 234.325 29.448C234.037 29.16 233.663 29.016 233.205 29.016C232.906 29.016 232.639 29.08 232.405 29.208C232.17 29.336 231.983 29.5173 231.845 29.752C231.717 29.9867 231.653 30.2587 231.653 30.568L230.837 30.152C230.837 29.544 230.965 29.016 231.221 28.568C231.487 28.1093 231.85 27.752 232.309 27.496C232.778 27.24 233.306 27.112 233.893 27.112C234.458 27.112 234.965 27.256 235.413 27.544C235.861 27.8213 236.213 28.1893 236.469 28.648C236.725 29.096 236.853 29.5813 236.853 30.104V35H234.757ZM229.557 35V27.272H231.653V35H229.557ZM240.621 35.16C240.237 35.16 239.922 35.032 239.677 34.776C239.432 34.52 239.309 34.2053 239.309 33.832C239.309 33.4587 239.432 33.144 239.677 32.888C239.922 32.632 240.237 32.504 240.621 32.504C240.994 32.504 241.304 32.632 241.549 32.888C241.794 33.144 241.917 33.4587 241.917 33.832C241.917 34.2053 241.794 34.52 241.549 34.776C241.304 35.032 240.994 35.16 240.621 35.16ZM244.54 35V27.272H246.652V35H244.54ZM245.596 26.024C245.255 26.024 244.972 25.912 244.748 25.688C244.524 25.4533 244.412 25.1653 244.412 24.824C244.412 24.4933 244.524 24.2107 244.748 23.976C244.972 23.7413 245.255 23.624 245.596 23.624C245.948 23.624 246.231 23.7413 246.444 23.976C246.668 24.2107 246.78 24.4933 246.78 24.824C246.78 25.1653 246.668 25.4533 246.444 25.688C246.231 25.912 245.948 26.024 245.596 26.024ZM254.349 35V30.568C254.349 30.1093 254.205 29.736 253.917 29.448C253.629 29.16 253.255 29.016 252.797 29.016C252.498 29.016 252.231 29.08 251.997 29.208C251.762 29.336 251.575 29.5173 251.437 29.752C251.309 29.9867 251.245 30.2587 251.245 30.568L250.429 30.152C250.429 29.544 250.557 29.016 250.813 28.568C251.079 28.1093 251.442 27.752 251.901 27.496C252.37 27.24 252.898 27.112 253.485 27.112C254.05 27.112 254.557 27.256 255.005 27.544C255.453 27.8213 255.805 28.1893 256.061 28.648C256.317 29.096 256.445 29.5813 256.445 30.104V35H254.349ZM249.149 35V27.272H251.245V35H249.149ZM263.85 35.16C263.466 35.16 263.151 35.032 262.906 34.776C262.661 34.52 262.538 34.2107 262.538 33.848C262.538 33.464 262.661 33.144 262.906 32.888C263.151 32.632 263.466 32.504 263.85 32.504C264.234 32.504 264.549 32.632 264.794 32.888C265.039 33.144 265.162 33.464 265.162 33.848C265.162 34.2107 265.039 34.52 264.794 34.776C264.549 35.032 264.234 35.16 263.85 35.16ZM263.85 30.328C263.466 30.328 263.151 30.2 262.906 29.944C262.661 29.688 262.538 29.3733 262.538 29C262.538 28.616 262.661 28.3013 262.906 28.056C263.151 27.8 263.466 27.672 263.85 27.672C264.234 27.672 264.549 27.8 264.794 28.056C265.039 28.3013 265.162 28.616 265.162 29C265.162 29.3733 265.039 29.688 264.794 29.944C264.549 30.2 264.234 30.328 263.85 30.328Z" fill="white"/>
<g clip-path="url(#clip1_7771_2862)">
<mask id="mask0_7771_2862" style="mask-type:luminance" maskUnits="userSpaceOnUse" x="80" y="47" width="208" height="45">
<path d="M288 47H80V92H288V47Z" fill="white"/>
</mask>
<g mask="url(#mask0_7771_2862)">
<mask id="mask1_7771_2862" style="mask-type:luminance" maskUnits="userSpaceOnUse" x="-5" y="-83" width="363" height="364">
<path d="M357.33 -82.375H-4.32422V280.054H357.33V-82.375Z" fill="white"/>
</mask>
<g mask="url(#mask1_7771_2862)">
<path d="M110.096 55.9257V91.4887H103.616L88.1768 69.1056H87.9169V91.4887H80.4141V55.9257H86.9986L102.316 78.2913H102.628V55.9257H110.096ZM116.295 91.4887V55.9257H140.208V62.1248H123.798V70.5989H138.977V76.7982H123.798V85.2893H140.277V91.4887H116.295ZM153.208 55.9257L160.364 68.0461H160.641L167.832 55.9257H176.305L165.475 73.7073L176.548 91.4887H167.919L160.641 79.3508H160.364L153.086 91.4887H144.491L155.599 73.7073L144.699 55.9257H153.208ZM179.701 62.1248V55.9257H208.847V62.1248H197.982V91.4887H190.566V62.1248H179.701Z" fill="white"/>
<path d="M202.681 91.7485C202.023 91.7485 201.458 91.5152 200.987 91.0492C200.522 90.5766 200.289 90.0106 200.289 89.3512C200.289 88.6988 200.522 88.1395 200.987 87.6735C201.458 87.2073 202.023 86.9743 202.681 86.9743C203.319 86.9743 203.877 87.2073 204.355 87.6735C204.834 88.1395 205.073 88.6988 205.073 89.3512C205.073 89.7906 204.96 90.1937 204.734 90.5598C204.515 90.9194 204.226 91.209 203.867 91.4286C203.508 91.6418 203.113 91.7485 202.681 91.7485ZM214.199 91.7383C213.037 91.7383 211.984 91.4387 211.04 90.8395C210.103 90.2336 209.359 89.3448 208.808 88.1727C208.263 86.9942 207.99 85.5495 207.99 83.838C207.99 82.0802 208.273 80.6191 208.837 79.4537C209.402 78.2817 210.153 77.4061 211.09 76.827C212.033 76.2411 213.067 75.9481 214.19 75.9481C215.046 75.9481 215.761 76.0944 216.332 76.3875C216.91 76.6738 217.375 77.0334 217.727 77.4661C218.086 77.8922 218.359 78.3118 218.545 78.7244H218.674V71.0341H222.91V91.4887H218.724V89.0315H218.545C218.345 89.4579 218.063 89.8808 217.698 90.3001C217.339 90.713 216.87 91.056 216.292 91.3289C215.721 91.6019 215.023 91.7383 214.199 91.7383ZM215.545 88.3524C216.229 88.3524 216.807 88.1661 217.279 87.793C217.757 87.4138 218.123 86.8845 218.375 86.2054C218.634 85.5262 218.764 84.7304 218.764 83.8183C218.764 82.906 218.638 82.1138 218.385 81.441C218.133 80.7685 217.767 80.2492 217.289 79.8829C216.81 79.517 216.229 79.3339 215.545 79.3339C214.847 79.3339 214.259 79.5234 213.781 79.9031C213.302 80.2824 212.94 80.8085 212.694 81.4809C212.448 82.1537 212.326 82.9326 212.326 83.8183C212.326 84.7105 212.448 85.4993 212.694 86.1851C212.947 86.8644 213.309 87.3972 213.781 87.7832C214.259 88.1629 214.847 88.3524 215.545 88.3524ZM233.377 91.7885C231.802 91.7885 230.447 91.4688 229.311 90.8297C228.181 90.1837 227.31 89.2713 226.699 88.0929C226.089 86.9078 225.782 85.5061 225.782 83.8882C225.782 82.3101 226.089 80.9252 226.699 79.7334C227.31 78.5416 228.172 77.6125 229.28 76.9468C230.396 76.2811 231.706 75.9481 233.207 75.9481C234.218 75.9481 235.158 76.111 236.028 76.4373C236.905 76.7569 237.669 77.2398 238.32 77.8854C238.978 78.5313 239.489 79.3437 239.855 80.3223C240.22 81.2946 240.403 82.4334 240.403 83.7383V84.9067H227.477V82.27H236.407C236.407 81.6577 236.274 81.115 236.008 80.6423C235.743 80.1693 235.373 79.7999 234.902 79.5336C234.437 79.2606 233.896 79.1239 233.277 79.1239C232.632 79.1239 232.062 79.2738 231.563 79.5735C231.071 79.8663 230.686 80.2626 230.406 80.7618C230.128 81.2547 229.985 81.8041 229.979 82.4101V84.9167C229.979 85.6758 230.118 86.3319 230.396 86.8845C230.683 87.4371 231.085 87.8631 231.602 88.1629C232.121 88.4624 232.735 88.6122 233.446 88.6122C233.918 88.6122 234.35 88.5458 234.742 88.4125C235.134 88.2792 235.47 88.0795 235.748 87.8133C236.028 87.5469 236.24 87.2207 236.386 86.8347L240.313 87.0941C240.115 88.0396 239.706 88.8653 239.087 89.5711C238.476 90.27 237.686 90.8162 236.715 91.209C235.752 91.5951 234.639 91.7885 233.377 91.7885ZM247.539 91.7782C246.563 91.7782 245.691 91.6085 244.928 91.2687C244.164 90.9226 243.559 90.4132 243.114 89.7407C242.675 89.0616 242.456 88.2159 242.456 87.2041C242.456 86.3516 242.612 85.6359 242.924 85.0566C243.236 84.4775 243.662 84.0112 244.2 83.6584C244.739 83.3056 245.35 83.0391 246.034 82.8594C246.724 82.6795 247.45 82.5532 248.207 82.4797C249.097 82.3867 249.815 82.3001 250.359 82.2202C250.904 82.1336 251.299 82.007 251.545 81.8405C251.791 81.6743 251.915 81.4279 251.915 81.1015V81.0415C251.915 80.409 251.715 79.9197 251.316 79.5735C250.924 79.2272 250.366 79.0542 249.642 79.0542C248.877 79.0542 248.27 79.2239 247.818 79.5634C247.367 79.8964 247.067 80.316 246.921 80.822L242.994 80.5023C243.194 79.57 243.586 78.7644 244.171 78.0851C244.755 77.3996 245.509 76.8735 246.432 76.5073C247.362 76.1344 248.439 75.9481 249.662 75.9481C250.512 75.9481 251.326 76.0478 252.103 76.2474C252.887 76.4473 253.581 76.7569 254.187 77.1766C254.797 77.5959 255.279 78.1353 255.632 78.7944C255.983 79.4469 256.16 80.2294 256.16 81.1415V91.4887H252.134V89.3614H252.014C251.768 89.8408 251.439 90.2637 251.028 90.6296C250.615 90.9892 250.12 91.2722 249.542 91.4788C248.965 91.6785 248.296 91.7782 247.539 91.7782ZM248.755 88.8421C249.379 88.8421 249.93 88.7186 250.409 88.4723C250.887 88.2194 251.262 87.8797 251.535 87.4537C251.808 87.0276 251.944 86.5447 251.944 86.0056V84.3775C251.811 84.4642 251.628 84.544 251.396 84.6172C251.17 84.6837 250.914 84.747 250.629 84.807C250.343 84.8602 250.057 84.9102 249.771 84.9566C249.486 84.9966 249.226 85.0333 248.994 85.0666C248.495 85.1397 248.061 85.2564 247.688 85.4162C247.316 85.5761 247.028 85.7924 246.821 86.0653C246.615 86.3319 246.512 86.6645 246.512 87.064C246.512 87.6436 246.722 88.0862 247.14 88.3924C247.565 88.6922 248.103 88.8421 248.755 88.8421ZM263.699 71.0341V91.4887H259.453V71.0341H263.699ZM279.837 80.5222L275.95 80.7618C275.884 80.4292 275.74 80.1294 275.521 79.8632C275.302 79.5902 275.014 79.3738 274.654 79.2141C274.303 79.0476 273.88 78.964 273.389 78.964C272.731 78.964 272.176 79.1041 271.724 79.3837C271.273 79.6566 271.046 80.0229 271.046 80.4822C271.046 80.8484 271.192 81.1582 271.485 81.4113C271.777 81.664 272.279 81.8674 272.99 82.0204L275.76 82.5798C277.248 82.8859 278.359 83.3788 279.089 84.0579C279.82 84.7371 280.186 85.6294 280.186 86.7346C280.186 87.74 279.891 88.6222 279.299 89.3813C278.714 90.1402 277.91 90.7328 276.887 91.1592C275.87 91.5785 274.698 91.7885 273.369 91.7885C271.343 91.7885 269.728 91.3656 268.525 90.5199C267.329 89.6676 266.628 88.509 266.423 87.0442L270.598 86.8244C270.724 87.4437 271.029 87.9165 271.516 88.2428C272.001 88.5624 272.622 88.7222 273.379 88.7222C274.123 88.7222 274.721 88.579 275.173 88.2927C275.631 87.9996 275.864 87.6234 275.87 87.1642C275.864 86.7777 275.701 86.4616 275.382 86.2152C275.063 85.9621 274.571 85.769 273.908 85.6359L271.256 85.1065C269.762 84.807 268.649 84.2877 267.916 83.5484C267.193 82.8096 266.831 81.8674 266.831 80.7219C266.831 79.7366 267.097 78.8877 267.628 78.1753C268.167 77.4629 268.92 76.9136 269.891 76.5272C270.868 76.141 272.01 75.9481 273.319 75.9481C275.253 75.9481 276.773 76.3574 277.884 77.1766C278.999 77.9954 279.65 79.1109 279.837 80.5222Z" fill="white"/>
<path fill-rule="evenodd" clip-rule="evenodd" d="M286.846 47.7031V67.8381L280.999 61.1265V53.5624H274.409L269.305 47.7031H286.846Z" fill="white"/>
</g>
</g>
</g>
</g>
<g clip-path="url(#clip2_7771_2862)">
<path d="M0 185C0 169.915 0 162.373 4.68629 157.686C9.37258 153 16.9151 153 32 153H368V270H32C16.9151 270 9.37258 270 4.68629 265.314C0 260.627 0 253.085 0 238V185Z" fill="#FF5733"/>
<path d="M80.32 188L84.848 176.752H86.624L91.136 188H88.816L85.328 178.768H86.128L82.592 188H80.32ZM82.72 185.904V184.08H88.768V185.904H82.72ZM93.0055 188V176.432H95.1015V188H93.0055ZM100.255 188.176C99.8173 188.176 99.3853 188.117 98.9586 188C98.5426 187.883 98.1586 187.723 97.8066 187.52C97.4546 187.307 97.1506 187.051 96.8946 186.752L98.1426 185.488C98.4093 185.787 98.7186 186.011 99.0706 186.16C99.4226 186.309 99.812 186.384 100.239 186.384C100.58 186.384 100.836 186.336 101.007 186.24C101.188 186.144 101.279 186 101.279 185.808C101.279 185.595 101.183 185.429 100.991 185.312C100.809 185.195 100.569 185.099 100.271 185.024C99.972 184.939 99.6573 184.848 99.3266 184.752C99.0066 184.645 98.6973 184.512 98.3986 184.352C98.1 184.181 97.8546 183.952 97.6626 183.664C97.4813 183.365 97.3906 182.981 97.3906 182.512C97.3906 182.021 97.508 181.595 97.7426 181.232C97.988 180.869 98.3346 180.587 98.7826 180.384C99.2306 180.181 99.7586 180.08 100.367 180.08C101.007 180.08 101.583 180.192 102.095 180.416C102.617 180.64 103.049 180.976 103.391 181.424L102.127 182.688C101.892 182.4 101.625 182.192 101.327 182.064C101.039 181.936 100.724 181.872 100.383 181.872C100.073 181.872 99.8333 181.92 99.6626 182.016C99.5026 182.112 99.4226 182.245 99.4226 182.416C99.4226 182.608 99.5133 182.757 99.6946 182.864C99.8866 182.971 100.132 183.067 100.431 183.152C100.729 183.227 101.039 183.317 101.359 183.424C101.689 183.52 101.999 183.659 102.287 183.84C102.585 184.021 102.825 184.261 103.007 184.56C103.199 184.859 103.295 185.243 103.295 185.712C103.295 186.469 103.023 187.072 102.479 187.52C101.935 187.957 101.193 188.176 100.255 188.176ZM108.98 188.16C108.201 188.16 107.497 187.984 106.868 187.632C106.249 187.269 105.753 186.784 105.38 186.176C105.017 185.557 104.836 184.869 104.836 184.112C104.836 183.355 105.017 182.677 105.38 182.08C105.743 181.472 106.239 180.992 106.868 180.64C107.497 180.277 108.196 180.096 108.964 180.096C109.753 180.096 110.457 180.277 111.076 180.64C111.705 180.992 112.201 181.472 112.564 182.08C112.927 182.677 113.108 183.355 113.108 184.112C113.108 184.869 112.927 185.557 112.564 186.176C112.201 186.784 111.705 187.269 111.076 187.632C110.457 187.984 109.759 188.16 108.98 188.16ZM108.964 186.208C109.359 186.208 109.705 186.123 110.004 185.952C110.313 185.771 110.548 185.525 110.708 185.216C110.879 184.896 110.964 184.533 110.964 184.128C110.964 183.723 110.879 183.365 110.708 183.056C110.537 182.747 110.303 182.507 110.004 182.336C109.705 182.155 109.359 182.064 108.964 182.064C108.58 182.064 108.239 182.155 107.94 182.336C107.641 182.507 107.407 182.747 107.236 183.056C107.065 183.365 106.98 183.723 106.98 184.128C106.98 184.533 107.065 184.896 107.236 185.216C107.407 185.525 107.641 185.771 107.94 185.952C108.239 186.123 108.58 186.208 108.964 186.208ZM121.374 188L117.966 180.272H120.27L122.718 186.64H121.582L124.046 180.272H126.27L122.878 188H121.374ZM127.877 188V180.272H129.989V188H127.877ZM128.933 179.024C128.592 179.024 128.309 178.912 128.085 178.688C127.861 178.453 127.749 178.165 127.749 177.824C127.749 177.493 127.861 177.211 128.085 176.976C128.309 176.741 128.592 176.624 128.933 176.624C129.285 176.624 129.568 176.741 129.781 176.976C130.005 177.211 130.117 177.493 130.117 177.824C130.117 178.165 130.005 178.453 129.781 178.688C129.568 178.912 129.285 179.024 128.933 179.024ZM135.142 188.176C134.705 188.176 134.273 188.117 133.846 188C133.43 187.883 133.046 187.723 132.694 187.52C132.342 187.307 132.038 187.051 131.782 186.752L133.03 185.488C133.297 185.787 133.606 186.011 133.958 186.16C134.31 186.309 134.699 186.384 135.126 186.384C135.467 186.384 135.723 186.336 135.894 186.24C136.075 186.144 136.166 186 136.166 185.808C136.166 185.595 136.07 185.429 135.878 185.312C135.697 185.195 135.457 185.099 135.158 185.024C134.859 184.939 134.545 184.848 134.214 184.752C133.894 184.645 133.585 184.512 133.286 184.352C132.987 184.181 132.742 183.952 132.55 183.664C132.369 183.365 132.278 182.981 132.278 182.512C132.278 182.021 132.395 181.595 132.63 181.232C132.875 180.869 133.222 180.587 133.67 180.384C134.118 180.181 134.646 180.08 135.254 180.08C135.894 180.08 136.47 180.192 136.982 180.416C137.505 180.64 137.937 180.976 138.278 181.424L137.014 182.688C136.779 182.4 136.513 182.192 136.214 182.064C135.926 181.936 135.611 181.872 135.27 181.872C134.961 181.872 134.721 181.92 134.55 182.016C134.39 182.112 134.31 182.245 134.31 182.416C134.31 182.608 134.401 182.757 134.582 182.864C134.774 182.971 135.019 183.067 135.318 183.152C135.617 183.227 135.926 183.317 136.246 183.424C136.577 183.52 136.886 183.659 137.174 183.84C137.473 184.021 137.713 184.261 137.894 184.56C138.086 184.859 138.182 185.243 138.182 185.712C138.182 186.469 137.91 187.072 137.366 187.52C136.822 187.957 136.081 188.176 135.142 188.176ZM140.235 188V180.272H142.347V188H140.235ZM141.291 179.024C140.95 179.024 140.667 178.912 140.443 178.688C140.219 178.453 140.107 178.165 140.107 177.824C140.107 177.493 140.219 177.211 140.443 176.976C140.667 176.741 140.95 176.624 141.291 176.624C141.643 176.624 141.926 176.741 142.139 176.976C142.363 177.211 142.475 177.493 142.475 177.824C142.475 178.165 142.363 178.453 142.139 178.688C141.926 178.912 141.643 179.024 141.291 179.024ZM145.98 188V177.056H148.076V188H145.98ZM144.172 182.112V180.272H149.884V182.112H144.172ZM155.692 188V176.752H157.212L157.868 178.928V188H155.692ZM163.468 188L156.796 179.36L157.212 176.752L163.884 185.392L163.468 188ZM163.468 188L162.844 185.888V176.752H165.036V188H163.468ZM171.429 188.16C170.618 188.16 169.898 187.989 169.269 187.648C168.64 187.296 168.138 186.816 167.765 186.208C167.402 185.6 167.221 184.907 167.221 184.128C167.221 183.36 167.397 182.677 167.749 182.08C168.112 181.472 168.602 180.992 169.221 180.64C169.84 180.277 170.528 180.096 171.285 180.096C172.032 180.096 172.688 180.267 173.253 180.608C173.829 180.939 174.277 181.397 174.597 181.984C174.928 182.56 175.093 183.216 175.093 183.952C175.093 184.091 175.082 184.235 175.061 184.384C175.05 184.523 175.024 184.683 174.981 184.864L168.485 184.88V183.312L174.005 183.296L173.157 183.952C173.136 183.493 173.05 183.109 172.901 182.8C172.762 182.491 172.554 182.256 172.277 182.096C172.01 181.925 171.68 181.84 171.285 181.84C170.869 181.84 170.506 181.936 170.197 182.128C169.888 182.309 169.648 182.571 169.477 182.912C169.317 183.243 169.237 183.637 169.237 184.096C169.237 184.565 169.322 184.976 169.493 185.328C169.674 185.669 169.93 185.936 170.261 186.128C170.592 186.309 170.976 186.4 171.413 186.4C171.808 186.4 172.165 186.336 172.485 186.208C172.805 186.069 173.082 185.867 173.317 185.6L174.549 186.832C174.176 187.269 173.717 187.6 173.173 187.824C172.64 188.048 172.058 188.16 171.429 188.16ZM181.658 188L179.626 184.864L179.194 184.544L176.186 180.272H178.666L180.538 183.104L180.938 183.408L184.122 188H181.658ZM176.026 188L179.178 183.584L180.378 185.008L178.394 188H176.026ZM181.018 184.528L179.786 183.12L181.626 180.272H183.978L181.018 184.528ZM186.727 188V177.056H188.823V188H186.727ZM184.919 182.112V180.272H190.631V182.112H184.919ZM197.89 188.16C197.069 188.16 196.306 188.016 195.602 187.728C194.898 187.429 194.279 187.019 193.746 186.496C193.223 185.963 192.818 185.344 192.53 184.64C192.253 183.936 192.114 183.179 192.114 182.368C192.114 181.557 192.253 180.8 192.53 180.096C192.818 179.392 193.223 178.779 193.746 178.256C194.279 177.733 194.893 177.323 195.586 177.024C196.29 176.725 197.058 176.576 197.89 176.576C198.786 176.576 199.575 176.725 200.258 177.024C200.941 177.312 201.543 177.712 202.066 178.224L200.594 179.696C200.285 179.355 199.906 179.088 199.458 178.896C199.01 178.704 198.487 178.608 197.89 178.608C197.367 178.608 196.887 178.699 196.45 178.88C196.023 179.051 195.65 179.307 195.33 179.648C195.01 179.979 194.765 180.379 194.594 180.848C194.423 181.307 194.338 181.813 194.338 182.368C194.338 182.933 194.423 183.445 194.594 183.904C194.765 184.363 195.01 184.763 195.33 185.104C195.65 185.435 196.023 185.691 196.45 185.872C196.887 186.053 197.367 186.144 197.89 186.144C198.519 186.144 199.058 186.048 199.506 185.856C199.965 185.664 200.349 185.392 200.658 185.04L202.13 186.512C201.607 187.035 200.999 187.44 200.306 187.728C199.613 188.016 198.807 188.16 197.89 188.16ZM205.883 183.296V181.6H208.491C209.024 181.6 209.435 181.467 209.723 181.2C210.021 180.923 210.171 180.544 210.171 180.064C210.171 179.627 210.021 179.264 209.723 178.976C209.435 178.677 209.024 178.528 208.491 178.528H205.883V176.752H208.683C209.408 176.752 210.043 176.896 210.587 177.184C211.141 177.461 211.568 177.845 211.867 178.336C212.176 178.827 212.331 179.392 212.331 180.032C212.331 180.693 212.176 181.269 211.867 181.76C211.568 182.24 211.141 182.619 210.587 182.896C210.032 183.163 209.387 183.296 208.651 183.296H205.883ZM204.283 188V176.752H206.459V188H204.283ZM210.427 188L206.715 183.136L208.715 182.512L213.067 188H210.427ZM214.938 188V176.752H216.474L221.034 184.048H220.154L224.698 176.752H226.234V188H224.074V180.48L224.49 180.608L221.322 185.696H219.85L216.682 180.608L217.114 180.48V188H214.938ZM230.388 188.16C230.004 188.16 229.689 188.032 229.444 187.776C229.199 187.52 229.076 187.205 229.076 186.832C229.076 186.459 229.199 186.144 229.444 185.888C229.689 185.632 230.004 185.504 230.388 185.504C230.761 185.504 231.071 185.632 231.316 185.888C231.561 186.144 231.684 186.459 231.684 186.832C231.684 187.205 231.561 187.52 231.316 187.776C231.071 188.032 230.761 188.16 230.388 188.16ZM234.307 188V180.272H236.419V188H234.307ZM235.363 179.024C235.021 179.024 234.739 178.912 234.515 178.688C234.291 178.453 234.179 178.165 234.179 177.824C234.179 177.493 234.291 177.211 234.515 176.976C234.739 176.741 235.021 176.624 235.363 176.624C235.715 176.624 235.997 176.741 236.211 176.976C236.435 177.211 236.547 177.493 236.547 177.824C236.547 178.165 236.435 178.453 236.211 178.688C235.997 178.912 235.715 179.024 235.363 179.024ZM244.116 188V183.568C244.116 183.109 243.972 182.736 243.684 182.448C243.396 182.16 243.022 182.016 242.564 182.016C242.265 182.016 241.998 182.08 241.764 182.208C241.529 182.336 241.342 182.517 241.204 182.752C241.076 182.987 241.012 183.259 241.012 183.568L240.196 183.152C240.196 182.544 240.324 182.016 240.58 181.568C240.846 181.109 241.209 180.752 241.668 180.496C242.137 180.24 242.665 180.112 243.252 180.112C243.817 180.112 244.324 180.256 244.772 180.544C245.22 180.821 245.572 181.189 245.828 181.648C246.084 182.096 246.212 182.581 246.212 183.104V188H244.116ZM238.916 188V180.272H241.012V188H238.916ZM253.617 188.16C253.233 188.16 252.918 188.032 252.673 187.776C252.428 187.52 252.305 187.211 252.305 186.848C252.305 186.464 252.428 186.144 252.673 185.888C252.918 185.632 253.233 185.504 253.617 185.504C254.001 185.504 254.316 185.632 254.561 185.888C254.806 186.144 254.929 186.464 254.929 186.848C254.929 187.211 254.806 187.52 254.561 187.776C254.316 188.032 254.001 188.16 253.617 188.16ZM253.617 183.328C253.233 183.328 252.918 183.2 252.673 182.944C252.428 182.688 252.305 182.373 252.305 182C252.305 181.616 252.428 181.301 252.673 181.056C252.918 180.8 253.233 180.672 253.617 180.672C254.001 180.672 254.316 180.8 254.561 181.056C254.806 181.301 254.929 181.616 254.929 182C254.929 182.373 254.806 182.688 254.561 182.944C254.316 183.2 254.001 183.328 253.617 183.328Z" fill="white"/>
<g clip-path="url(#clip3_7771_2862)">
<mask id="mask2_7771_2862" style="mask-type:luminance" maskUnits="userSpaceOnUse" x="80" y="200" width="208" height="45">
<path d="M288 200H80V245H288V200Z" fill="white"/>
</mask>
<g mask="url(#mask2_7771_2862)">
<mask id="mask3_7771_2862" style="mask-type:luminance" maskUnits="userSpaceOnUse" x="-5" y="70" width="363" height="364">
<path d="M357.33 70.625H-4.32422V433.054H357.33V70.625Z" fill="white"/>
</mask>
<g mask="url(#mask3_7771_2862)">
<path d="M110.096 208.926V244.489H103.616L88.1768 222.106H87.9169V244.489H80.4141V208.926H86.9986L102.316 231.291H102.628V208.926H110.096ZM116.295 244.489V208.926H140.208V215.125H123.798V223.599H138.977V229.798H123.798V238.289H140.277V244.489H116.295ZM153.208 208.926L160.364 221.046H160.641L167.832 208.926H176.305L165.475 226.707L176.548 244.489H167.919L160.641 232.351H160.364L153.086 244.489H144.491L155.599 226.707L144.699 208.926H153.208ZM179.701 215.125V208.926H208.847V215.125H197.982V244.489H190.566V215.125H179.701Z" fill="white"/>
<path d="M202.681 244.749C202.023 244.749 201.458 244.515 200.987 244.049C200.522 243.577 200.289 243.011 200.289 242.351C200.289 241.699 200.522 241.14 200.987 240.674C201.458 240.207 202.023 239.974 202.681 239.974C203.319 239.974 203.877 240.207 204.355 240.674C204.834 241.14 205.073 241.699 205.073 242.351C205.073 242.791 204.96 243.194 204.734 243.56C204.515 243.919 204.226 244.209 203.867 244.429C203.508 244.642 203.113 244.749 202.681 244.749ZM214.199 244.738C213.037 244.738 211.984 244.439 211.04 243.84C210.103 243.234 209.359 242.345 208.808 241.173C208.263 239.994 207.99 238.55 207.99 236.838C207.99 235.08 208.273 233.619 208.837 232.454C209.402 231.282 210.153 230.406 211.09 229.827C212.033 229.241 213.067 228.948 214.19 228.948C215.046 228.948 215.761 229.094 216.332 229.388C216.91 229.674 217.375 230.033 217.727 230.466C218.086 230.892 218.359 231.312 218.545 231.724H218.674V224.034H222.91V244.489H218.724V242.032H218.545C218.345 242.458 218.063 242.881 217.698 243.3C217.339 243.713 216.87 244.056 216.292 244.329C215.721 244.602 215.023 244.738 214.199 244.738ZM215.545 241.352C216.229 241.352 216.807 241.166 217.279 240.793C217.757 240.414 218.123 239.884 218.375 239.205C218.634 238.526 218.764 237.73 218.764 236.818C218.764 235.906 218.638 235.114 218.385 234.441C218.133 233.769 217.767 233.249 217.289 232.883C216.81 232.517 216.229 232.334 215.545 232.334C214.847 232.334 214.259 232.523 213.781 232.903C213.302 233.282 212.94 233.808 212.694 234.481C212.448 235.154 212.326 235.933 212.326 236.818C212.326 237.711 212.448 238.499 212.694 239.185C212.947 239.864 213.309 240.397 213.781 240.783C214.259 241.163 214.847 241.352 215.545 241.352ZM233.377 244.788C231.802 244.788 230.447 244.469 229.311 243.83C228.181 243.184 227.31 242.271 226.699 241.093C226.089 239.908 225.782 238.506 225.782 236.888C225.782 235.31 226.089 233.925 226.699 232.733C227.31 231.542 228.172 230.612 229.28 229.947C230.396 229.281 231.706 228.948 233.207 228.948C234.218 228.948 235.158 229.111 236.028 229.437C236.905 229.757 237.669 230.24 238.32 230.885C238.978 231.531 239.489 232.344 239.855 233.322C240.22 234.295 240.403 235.433 240.403 236.738V237.907H227.477V235.27H236.407C236.407 234.658 236.274 234.115 236.008 233.642C235.743 233.169 235.373 232.8 234.902 232.534C234.437 232.261 233.896 232.124 233.277 232.124C232.632 232.124 232.062 232.274 231.563 232.574C231.071 232.866 230.686 233.263 230.406 233.762C230.128 234.255 229.985 234.804 229.979 235.41V237.917C229.979 238.676 230.118 239.332 230.396 239.884C230.683 240.437 231.085 240.863 231.602 241.163C232.121 241.462 232.735 241.612 233.446 241.612C233.918 241.612 234.35 241.546 234.742 241.412C235.134 241.279 235.47 241.079 235.748 240.813C236.028 240.547 236.24 240.221 236.386 239.835L240.313 240.094C240.115 241.04 239.706 241.865 239.087 242.571C238.476 243.27 237.686 243.816 236.715 244.209C235.752 244.595 234.639 244.788 233.377 244.788ZM247.539 244.778C246.563 244.778 245.691 244.608 244.928 244.269C244.164 243.923 243.559 243.413 243.114 242.741C242.675 242.062 242.456 241.216 242.456 240.204C242.456 239.352 242.612 238.636 242.924 238.057C243.236 237.478 243.662 237.011 244.2 236.658C244.739 236.306 245.35 236.039 246.034 235.859C246.724 235.679 247.45 235.553 248.207 235.48C249.097 235.387 249.815 235.3 250.359 235.22C250.904 235.134 251.299 235.007 251.545 234.841C251.791 234.674 251.915 234.428 251.915 234.102V234.041C251.915 233.409 251.715 232.92 251.316 232.574C250.924 232.227 250.366 232.054 249.642 232.054C248.877 232.054 248.27 232.224 247.818 232.563C247.367 232.896 247.067 233.316 246.921 233.822L242.994 233.502C243.194 232.57 243.586 231.764 244.171 231.085C244.755 230.4 245.509 229.874 246.432 229.507C247.362 229.134 248.439 228.948 249.662 228.948C250.512 228.948 251.326 229.048 252.103 229.247C252.887 229.447 253.581 229.757 254.187 230.177C254.797 230.596 255.279 231.135 255.632 231.794C255.983 232.447 256.16 233.229 256.16 234.141V244.489H252.134V242.361H252.014C251.768 242.841 251.439 243.264 251.028 243.63C250.615 243.989 250.12 244.272 249.542 244.479C248.965 244.679 248.296 244.778 247.539 244.778ZM248.755 241.842C249.379 241.842 249.93 241.719 250.409 241.472C250.887 241.219 251.262 240.88 251.535 240.454C251.808 240.028 251.944 239.545 251.944 239.006V237.378C251.811 237.464 251.628 237.544 251.396 237.617C251.17 237.684 250.914 237.747 250.629 237.807C250.343 237.86 250.057 237.91 249.771 237.957C249.486 237.997 249.226 238.033 248.994 238.067C248.495 238.14 248.061 238.256 247.688 238.416C247.316 238.576 247.028 238.792 246.821 239.065C246.615 239.332 246.512 239.665 246.512 240.064C246.512 240.644 246.722 241.086 247.14 241.392C247.565 241.692 248.103 241.842 248.755 241.842ZM263.699 224.034V244.489H259.453V224.034H263.699ZM279.837 233.522L275.95 233.762C275.884 233.429 275.74 233.129 275.521 232.863C275.302 232.59 275.014 232.374 274.654 232.214C274.303 232.048 273.88 231.964 273.389 231.964C272.731 231.964 272.176 232.104 271.724 232.384C271.273 232.657 271.046 233.023 271.046 233.482C271.046 233.848 271.192 234.158 271.485 234.411C271.777 234.664 272.279 234.867 272.99 235.02L275.76 235.58C277.248 235.886 278.359 236.379 279.089 237.058C279.82 237.737 280.186 238.629 280.186 239.735C280.186 240.74 279.891 241.622 279.299 242.381C278.714 243.14 277.91 243.733 276.887 244.159C275.87 244.579 274.698 244.788 273.369 244.788C271.343 244.788 269.728 244.366 268.525 243.52C267.329 242.668 266.628 241.509 266.423 240.044L270.598 239.824C270.724 240.444 271.029 240.917 271.516 241.243C272.001 241.562 272.622 241.722 273.379 241.722C274.123 241.722 274.721 241.579 275.173 241.293C275.631 241 275.864 240.623 275.87 240.164C275.864 239.778 275.701 239.462 275.382 239.215C275.063 238.962 274.571 238.769 273.908 238.636L271.256 238.107C269.762 237.807 268.649 237.288 267.916 236.548C267.193 235.81 266.831 234.867 266.831 233.722C266.831 232.737 267.097 231.888 267.628 231.175C268.167 230.463 268.92 229.914 269.891 229.527C270.868 229.141 272.01 228.948 273.319 228.948C275.253 228.948 276.773 229.357 277.884 230.177C278.999 230.995 279.65 232.111 279.837 233.522Z" fill="white"/>
<path fill-rule="evenodd" clip-rule="evenodd" d="M286.846 200.703V220.838L280.999 214.126V206.562H274.409L269.305 200.703H286.846Z" fill="white"/>
</g>
</g>
</g>
</g>
<defs>
<clipPath id="clip0_7771_2862">
<path d="M0 32C0 16.9151 0 9.37258 4.68629 4.68629C9.37258 0 16.9151 0 32 0H368V117H32C16.9151 117 9.37258 117 4.68629 112.314C0 107.627 0 100.085 0 85V32Z" fill="white"/>
</clipPath>
<clipPath id="clip1_7771_2862">
<rect width="208" height="45" fill="white" transform="translate(80 47)"/>
</clipPath>
<clipPath id="clip2_7771_2862">
<path d="M0 185C0 169.915 0 162.373 4.68629 157.686C9.37258 153 16.9151 153 32 153H368V270H32C16.9151 270 9.37258 270 4.68629 265.314C0 260.627 0 253.085 0 238V185Z" fill="white"/>
</clipPath>
<clipPath id="clip3_7771_2862">
<rect width="208" height="45" fill="white" transform="translate(80 200)"/>
</clipPath>
</defs>
</svg>
