<svg width="24" height="25" viewBox="0 0 24 25" fill="none" xmlns="http://www.w3.org/2000/svg">
<path d="M4.5 10.3472H4C3.05719 10.3472 2.58579 10.3472 2.29289 10.6401C2 10.933 2 11.4044 2 12.3472V20.8472C2 21.79 2 22.2614 2.29289 22.5543C2.58579 22.8472 3.05719 22.8472 4 22.8472H4.5C5.44281 22.8472 5.91421 22.8472 6.20711 22.5543C6.5 22.2614 6.5 21.79 6.5 20.8472V12.3472C6.5 11.4044 6.5 10.933 6.20711 10.6401C5.91421 10.3472 5.44281 10.3472 4.5 10.3472Z" stroke="black" stroke-width="1.5"/>
<path d="M6.5 5.09717C6.5 6.33981 5.49264 7.34717 4.25 7.34717C3.00736 7.34717 2 6.33981 2 5.09717C2 3.85453 3.00736 2.84717 4.25 2.84717C5.49264 2.84717 6.5 3.85453 6.5 5.09717Z" stroke="black" stroke-width="1.5"/>
<path d="M12.326 10.3472H11.5C10.5572 10.3472 10.0858 10.3472 9.79289 10.6401C9.5 10.933 9.5 11.4044 9.5 12.3472V20.8472C9.5 21.79 9.5 22.2614 9.79289 22.5543C10.0858 22.8472 10.5572 22.8472 11.5 22.8472H12C12.9428 22.8472 13.4142 22.8472 13.7071 22.5543C14 22.2614 14 21.79 14 20.8472L14.0001 17.3473C14.0001 15.6905 14.5281 14.3473 16.0879 14.3473C16.8677 14.3473 17.5 15.0189 17.5 15.8473V20.3473C17.5 21.2901 17.5 21.7615 17.7929 22.0544C18.0857 22.3473 18.5572 22.3473 19.5 22.3473H19.9987C20.9413 22.3473 21.4126 22.3473 21.7055 22.0545C21.9984 21.7617 21.9985 21.2904 21.9987 20.3478L22.0001 14.8474C22.0001 12.3622 19.6364 10.3474 17.2968 10.3474C15.9649 10.3474 14.7767 11.0003 14.0001 12.0212C14 11.3911 14 11.0761 13.8632 10.8422C13.7765 10.694 13.6531 10.5707 13.505 10.484C13.2711 10.3472 12.9561 10.3472 12.326 10.3472Z" stroke="black" stroke-width="1.5" stroke-linejoin="round"/>
</svg>
