<svg width="180" height="60" viewBox="0 0 180 60" fill="none" xmlns="http://www.w3.org/2000/svg">
<path d="M0 8C0 3.58172 3.58172 0 8 0H172C176.418 0 180 3.58172 180 8V52C180 56.4183 176.418 60 172 60H8C3.58172 60 0 56.4183 0 52V8Z" fill="#FF5733"/>
<mask id="mask0_254_3421" style="mask-type:luminance" maskUnits="userSpaceOnUse" x="25" y="16" width="130" height="28">
<path d="M155 16H25V44H155V16Z" fill="white"/>
</mask>
<g mask="url(#mask0_254_3421)">
<mask id="mask1_254_3421" style="mask-type:luminance" maskUnits="userSpaceOnUse" x="-28" y="-65" width="227" height="227">
<path d="M198.331 -64.5H-27.7031V161.011H198.331V-64.5Z" fill="white"/>
</mask>
<g mask="url(#mask1_254_3421)">
<path d="M43.8112 21.5537V43.6818H39.7608L30.1115 29.7546H29.949V43.6818H25.2598V21.5537H29.3751L38.9485 35.4701H39.1435V21.5537H43.8112ZM47.6855 43.6818V21.5537H62.6307V25.411H52.3748V30.6837H61.8617V34.5411H52.3748V39.8244H62.6739V43.6818H47.6855ZM70.7557 21.5537L75.2284 29.0953H75.4016L79.8959 21.5537H85.1917L78.4231 32.6178L85.3433 43.6818H79.9501L75.4016 36.1294H75.2284L70.6798 43.6818H65.3081L72.2501 32.6178L65.4381 21.5537H70.7557ZM87.3143 25.411V21.5537H105.53V25.411H98.7397V43.6818H94.1045V25.411H87.3143Z" fill="white"/>
<path d="M101.679 43.8436C101.267 43.8436 100.914 43.6984 100.62 43.4085C100.329 43.1144 100.184 42.7622 100.184 42.3519C100.184 41.946 100.329 41.598 100.62 41.308C100.914 41.018 101.267 40.873 101.679 40.873C102.077 40.873 102.426 41.018 102.725 41.308C103.024 41.598 103.174 41.946 103.174 42.3519C103.174 42.6253 103.103 42.8761 102.962 43.104C102.825 43.3277 102.644 43.5079 102.42 43.6445C102.196 43.7772 101.948 43.8436 101.679 43.8436ZM108.878 43.8372C108.151 43.8372 107.493 43.6508 106.903 43.278C106.317 42.901 105.852 42.348 105.508 41.6187C105.167 40.8853 104.997 39.9864 104.997 38.9215C104.997 37.8277 105.173 36.9186 105.526 36.1935C105.879 35.4643 106.348 34.9194 106.934 34.5591C107.524 34.1945 108.17 34.0122 108.871 34.0122C109.407 34.0122 109.853 34.1033 110.21 34.2856C110.572 34.4638 110.862 34.6875 111.083 34.9568C111.307 35.2219 111.477 35.483 111.593 35.7397H111.674V30.9546H114.322V43.6819H111.705V42.153H111.593C111.469 42.4183 111.292 42.6814 111.064 42.9424C110.84 43.1993 110.547 43.4127 110.186 43.5825C109.829 43.7523 109.392 43.8372 108.878 43.8372ZM109.718 41.7305C110.146 41.7305 110.507 41.6145 110.802 41.3824C111.101 41.1464 111.33 40.8171 111.488 40.3945C111.649 39.9719 111.73 39.4767 111.73 38.9092C111.73 38.3416 111.652 37.8486 111.494 37.43C111.336 37.0116 111.107 36.6885 110.808 36.4605C110.509 36.2329 110.146 36.1189 109.718 36.1189C109.282 36.1189 108.915 36.2369 108.616 36.4731C108.317 36.7091 108.091 37.0365 107.937 37.4549C107.783 37.8735 107.707 38.3581 107.707 38.9092C107.707 39.4644 107.783 39.9552 107.937 40.3819C108.095 40.8046 108.321 41.1361 108.616 41.3763C108.915 41.6125 109.282 41.7305 109.718 41.7305ZM120.864 43.8685C119.879 43.8685 119.032 43.6696 118.323 43.2719C117.616 42.8699 117.072 42.3022 116.69 41.569C116.308 40.8316 116.117 39.9594 116.117 38.9527C116.117 37.9708 116.308 37.1091 116.69 36.3675C117.072 35.626 117.61 35.0478 118.303 34.6336C119.001 34.2194 119.819 34.0122 120.757 34.0122C121.389 34.0122 121.977 34.1136 122.52 34.3166C123.068 34.5155 123.546 34.816 123.953 35.2177C124.364 35.6196 124.684 36.1251 124.912 36.734C125.141 37.3389 125.255 38.0475 125.255 38.8594V39.5865H117.176V37.9458H122.757C122.757 37.5649 122.674 37.2272 122.508 36.933C122.342 36.6388 122.111 36.4089 121.817 36.2432C121.526 36.0733 121.188 35.9883 120.801 35.9883C120.398 35.9883 120.042 36.0816 119.73 36.268C119.422 36.4502 119.182 36.6968 119.007 37.0074C118.833 37.3141 118.743 37.656 118.74 38.033V39.5927C118.74 40.065 118.827 40.4733 119.001 40.8171C119.18 41.1609 119.431 41.426 119.754 41.6125C120.078 41.7989 120.462 41.8921 120.907 41.8921C121.202 41.8921 121.472 41.8508 121.717 41.7678C121.962 41.6849 122.172 41.5606 122.346 41.395C122.52 41.2293 122.653 41.0263 122.744 40.7861L125.198 40.9475C125.075 41.5358 124.819 42.0496 124.433 42.4888C124.05 42.9236 123.557 43.2635 122.95 43.5079C122.348 43.7481 121.652 43.8685 120.864 43.8685ZM129.715 43.8621C129.105 43.8621 128.56 43.7565 128.083 43.5451C127.605 43.3297 127.228 43.0127 126.949 42.5943C126.675 42.1717 126.538 41.6455 126.538 41.016C126.538 40.4855 126.636 40.0402 126.831 39.6797C127.026 39.3194 127.292 39.0293 127.628 38.8097C127.965 38.5902 128.347 38.4244 128.774 38.3126C129.206 38.2006 129.659 38.1221 130.132 38.0763C130.688 38.0185 131.137 37.9646 131.477 37.9149C131.818 37.861 132.065 37.7822 132.218 37.6786C132.372 37.5752 132.45 37.4219 132.45 37.2188V37.1814C132.45 36.7879 132.325 36.4835 132.075 36.268C131.83 36.0525 131.482 35.9449 131.029 35.9449C130.551 35.9449 130.172 36.0505 129.889 36.2617C129.607 36.4689 129.42 36.73 129.329 37.0449L126.874 36.846C126.999 36.2658 127.244 35.7646 127.61 35.3419C127.975 34.9154 128.446 34.588 129.023 34.3602C129.604 34.1281 130.277 34.0122 131.041 34.0122C131.573 34.0122 132.081 34.0742 132.567 34.1985C133.057 34.3228 133.491 34.5155 133.87 34.7766C134.251 35.0375 134.552 35.3732 134.773 35.7833C134.992 36.1893 135.103 36.6761 135.103 37.2437V43.6819H132.587V42.3583H132.512C132.358 42.6566 132.153 42.9197 131.895 43.1474C131.637 43.3711 131.328 43.5472 130.967 43.6758C130.606 43.8 130.188 43.8621 129.715 43.8621ZM130.475 42.0352C130.865 42.0352 131.209 41.9583 131.509 41.805C131.807 41.6477 132.042 41.4363 132.212 41.1713C132.383 40.9061 132.468 40.6057 132.468 40.2702V39.2572C132.385 39.3111 132.27 39.3608 132.125 39.4063C131.984 39.4477 131.824 39.4871 131.646 39.5244C131.467 39.5575 131.288 39.5887 131.11 39.6175C130.932 39.6424 130.769 39.6652 130.624 39.686C130.312 39.7315 130.041 39.8041 129.808 39.9035C129.575 40.003 129.395 40.1375 129.266 40.3074C129.137 40.4733 129.073 40.6802 129.073 40.9288C129.073 41.2894 129.204 41.5648 129.466 41.7553C129.731 41.9419 130.067 42.0352 130.475 42.0352ZM139.815 30.9546V43.6819H137.161V30.9546H139.815ZM149.901 36.8583L147.472 37.0074C147.43 36.8005 147.341 36.6139 147.204 36.4483C147.067 36.2784 146.887 36.1438 146.662 36.0444C146.442 35.9408 146.178 35.8888 145.871 35.8888C145.46 35.8888 145.113 35.976 144.83 36.1499C144.548 36.3197 144.407 36.5477 144.407 36.8335C144.407 37.0613 144.498 37.2541 144.681 37.4116C144.864 37.5688 145.177 37.6953 145.622 37.7905L147.353 38.1386C148.283 38.3291 148.977 38.6358 149.434 39.0583C149.891 39.4809 150.119 40.0361 150.119 40.7238C150.119 41.3494 149.935 41.8983 149.565 42.3706C149.199 42.8429 148.697 43.2116 148.057 43.4769C147.421 43.7378 146.689 43.8685 145.859 43.8685C144.592 43.8685 143.583 43.6053 142.831 43.0791C142.084 42.5488 141.645 41.8279 141.517 40.9165L144.127 40.7797C144.206 41.1651 144.396 41.4592 144.7 41.6622C145.003 41.8611 145.392 41.9605 145.865 41.9605C146.33 41.9605 146.704 41.8714 146.986 41.6933C147.272 41.5109 147.418 41.2769 147.421 40.9911C147.418 40.7507 147.316 40.554 147.117 40.4007C146.917 40.2432 146.61 40.123 146.195 40.0402L144.538 39.7108C143.604 39.5244 142.908 39.2013 142.451 38.7413C141.998 38.2816 141.773 37.6953 141.773 36.9826C141.773 36.3695 141.939 35.8413 142.271 35.398C142.607 34.9547 143.078 34.613 143.685 34.3725C144.295 34.1322 145.009 34.0122 145.827 34.0122C147.036 34.0122 147.986 34.2669 148.68 34.7766C149.378 35.2861 149.784 35.9802 149.901 36.8583Z" fill="white"/>
<path fill-rule="evenodd" clip-rule="evenodd" d="M154.281 16.4375V28.9659L150.627 24.7898V20.0833H146.509L143.318 16.4375H154.281Z" fill="white"/>
</g>
</g>
</svg>
